<svg width="21" height="21" viewBox="0 0 21 21" fill="none" xmlns="http://www.w3.org/2000/svg">
<g clip-path="url(#clip0)">
<path d="M11.7217 2.55859H5.02403C4.57994 2.55859 4.15405 2.73501 3.84004 3.04902C3.52602 3.36303 3.34961 3.78893 3.34961 4.23301V17.6284C3.34961 18.0724 3.52602 18.4983 3.84004 18.8124C4.15405 19.1264 4.57994 19.3028 5.02403 19.3028H15.0705C15.5146 19.3028 15.9405 19.1264 16.2545 18.8124C16.5685 18.4983 16.745 18.0724 16.745 17.6284V7.58185L11.7217 2.55859Z" stroke="#A3A3A3" stroke-width="1.67442" stroke-linecap="round" stroke-linejoin="round"/>
<path d="M11.7207 2.55859V7.58185H16.744" stroke="#A3A3A3" stroke-width="1.67442" stroke-linecap="round" stroke-linejoin="round"/>
<path d="M13.3949 11.7676H6.69727" stroke="#A3A3A3" stroke-width="1.67442" stroke-linecap="round" stroke-linejoin="round"/>
<path d="M13.3949 15.1152H6.69727" stroke="#A3A3A3" stroke-width="1.67442" stroke-linecap="round" stroke-linejoin="round"/>
<path d="M8.37168 8.41797H7.53447H6.69727" stroke="#A3A3A3" stroke-width="1.67442" stroke-linecap="round" stroke-linejoin="round"/>
</g>
<defs>
<clipPath id="clip0">
<rect width="20.093" height="20.093" fill="white" transform="translate(0 0.884766)"/>
</clipPath>
</defs>
</svg>
