<svg width="21" height="21" viewBox="0 0 21 21" fill="none" xmlns="http://www.w3.org/2000/svg">
<path d="M16.745 10.0449V18.417H3.34961V10.0449" stroke="#A3A3A3" stroke-width="1.67442" stroke-linecap="round" stroke-linejoin="round"/>
<path d="M18.418 5.85938H1.67383V10.0454H18.418V5.85938Z" stroke="#A3A3A3" stroke-width="1.67442" stroke-linecap="round" stroke-linejoin="round"/>
<path d="M10.0469 18.4175V5.85938" stroke="#A3A3A3" stroke-width="1.67442" stroke-linecap="round" stroke-linejoin="round"/>
<path d="M10.046 5.85792H6.27857C5.72347 5.85792 5.1911 5.63741 4.79858 5.24489C4.40606 4.85237 4.18555 4.32 4.18555 3.7649C4.18555 3.20979 4.40606 2.67743 4.79858 2.28491C5.1911 1.89239 5.72347 1.67188 6.27857 1.67188C9.2088 1.67187 10.046 5.85792 10.046 5.85792Z" stroke="#A3A3A3" stroke-width="1.67442" stroke-linecap="round" stroke-linejoin="round"/>
<path d="M10.0469 5.85792H13.8143C14.3694 5.85792 14.9018 5.63741 15.2943 5.24489C15.6868 4.85237 15.9073 4.32 15.9073 3.7649C15.9073 3.20979 15.6868 2.67743 15.2943 2.28491C14.9018 1.89239 14.3694 1.67188 13.8143 1.67188C10.8841 1.67187 10.0469 5.85792 10.0469 5.85792Z" stroke="#A3A3A3" stroke-width="1.67442" stroke-linecap="round" stroke-linejoin="round"/>
</svg>
