<svg width="21" height="21" viewBox="0 0 21 21" fill="none" xmlns="http://www.w3.org/2000/svg">
<g clip-path="url(#clip0)">
<path d="M10.0468 12.5584C11.4339 12.5584 12.5584 11.4339 12.5584 10.0468C12.5584 8.65965 11.4339 7.53516 10.0468 7.53516C8.65965 7.53516 7.53516 8.65965 7.53516 10.0468C7.53516 11.4339 8.65965 12.5584 10.0468 12.5584Z" stroke="#A3A3A3" stroke-width="1.67442" stroke-linecap="round" stroke-linejoin="round"/>
<path d="M16.2406 12.5588C16.1291 12.8113 16.0959 13.0914 16.1451 13.363C16.1944 13.6346 16.3239 13.8852 16.5169 14.0825L16.5671 14.1328C16.7228 14.2883 16.8463 14.4729 16.9305 14.6762C17.0148 14.8795 17.0582 15.0974 17.0582 15.3174C17.0582 15.5375 17.0148 15.7554 16.9305 15.9586C16.8463 16.1619 16.7228 16.3466 16.5671 16.5021C16.4116 16.6578 16.2269 16.7813 16.0236 16.8655C15.8204 16.9498 15.6025 16.9932 15.3824 16.9932C15.1624 16.9932 14.9445 16.9498 14.7412 16.8655C14.538 16.7813 14.3533 16.6578 14.1978 16.5021L14.1476 16.4518C13.9503 16.2588 13.6996 16.1294 13.4281 16.0801C13.1565 16.0309 12.8764 16.0641 12.6238 16.1756C12.3762 16.2817 12.165 16.4579 12.0163 16.6825C11.8675 16.9071 11.7877 17.1703 11.7866 17.4397V17.5821C11.7866 18.0262 11.6102 18.4521 11.2962 18.7661C10.9822 19.0801 10.5563 19.2565 10.1122 19.2565C9.66813 19.2565 9.24224 19.0801 8.92822 18.7661C8.61421 18.4521 8.4378 18.0262 8.4378 17.5821V17.5067C8.43131 17.2296 8.34162 16.9609 8.18036 16.7354C8.01911 16.5099 7.79376 16.3382 7.53361 16.2425C7.2811 16.1311 7.00098 16.0978 6.7294 16.1471C6.45781 16.1963 6.2072 16.3258 6.00989 16.5188L5.95966 16.5691C5.80415 16.7247 5.61948 16.8482 5.41621 16.9325C5.21294 17.0168 4.99505 17.0601 4.77501 17.0601C4.55496 17.0601 4.33708 17.0168 4.1338 16.9325C3.93053 16.8482 3.74586 16.7247 3.59036 16.5691C3.43467 16.4135 3.31117 16.2289 3.22691 16.0256C3.14264 15.8223 3.09927 15.6044 3.09927 15.3844C3.09927 15.1644 3.14264 14.9465 3.22691 14.7432C3.31117 14.5399 3.43467 14.3553 3.59036 14.1997L3.64059 14.1495C3.8336 13.9522 3.96307 13.7016 4.01231 13.43C4.06156 13.1584 4.02831 12.8783 3.91687 12.6258C3.81074 12.3782 3.63452 12.167 3.40991 12.0182C3.18529 11.8695 2.92208 11.7897 2.65268 11.7886H2.51036C2.06627 11.7886 1.64038 11.6122 1.32636 11.2982C1.01235 10.9841 0.835938 10.5583 0.835938 10.1142C0.835938 9.67008 1.01235 9.24419 1.32636 8.93018C1.64038 8.61616 2.06627 8.43975 2.51036 8.43975H2.5857C2.86282 8.43327 3.13157 8.34357 3.35702 8.18232C3.58248 8.02106 3.75421 7.79571 3.84989 7.53556C3.96134 7.28305 3.99458 7.00294 3.94534 6.73135C3.89609 6.45976 3.76662 6.20916 3.57361 6.01184L3.52338 5.96161C3.3677 5.8061 3.24419 5.62143 3.15993 5.41816C3.07567 5.21489 3.03229 4.997 3.03229 4.77696C3.03229 4.55692 3.07567 4.33903 3.15993 4.13576C3.24419 3.93249 3.3677 3.74782 3.52338 3.59231C3.67889 3.43663 3.86356 3.31312 4.06683 3.22886C4.2701 3.1446 4.48799 3.10122 4.70803 3.10122C4.92807 3.10122 5.14596 3.1446 5.34923 3.22886C5.5525 3.31312 5.73717 3.43663 5.89268 3.59231L5.94291 3.64254C6.14023 3.83555 6.39083 3.96502 6.66242 4.01427C6.93401 4.06351 7.21412 4.03027 7.46663 3.91882H7.53361C7.78123 3.81269 7.99242 3.63648 8.14117 3.41186C8.28992 3.18725 8.36975 2.92404 8.37082 2.65463V2.51231C8.37082 2.06823 8.54723 1.64233 8.86125 1.32832C9.17526 1.0143 9.60115 0.837891 10.0452 0.837891C10.4893 0.837891 10.9152 1.0143 11.2292 1.32832C11.5432 1.64233 11.7197 2.06823 11.7197 2.51231V2.58766C11.7207 2.85706 11.8006 3.12027 11.9493 3.34488C12.0981 3.5695 12.3092 3.74572 12.5569 3.85184C12.8094 3.96329 13.0895 3.99653 13.3611 3.94729C13.6327 3.89805 13.8833 3.76857 14.0806 3.57556L14.1308 3.52533C14.2863 3.36965 14.471 3.24615 14.6743 3.16188C14.8775 3.07762 15.0954 3.03425 15.3155 3.03425C15.5355 3.03425 15.7534 3.07762 15.9567 3.16188C16.1599 3.24615 16.3446 3.36965 16.5001 3.52533C16.6558 3.68084 16.7793 3.86551 16.8636 4.06878C16.9478 4.27205 16.9912 4.48994 16.9912 4.70998C16.9912 4.93003 16.9478 5.14791 16.8636 5.35119C16.7793 5.55446 16.6558 5.73913 16.5001 5.89463L16.4499 5.94487C16.2569 6.14218 16.1274 6.39279 16.0782 6.66437C16.0289 6.93596 16.0622 7.21607 16.1736 7.46859V7.53556C16.2797 7.78318 16.456 7.99437 16.6806 8.14312C16.9052 8.29187 17.1684 8.3717 17.4378 8.37277H17.5801C18.0242 8.37277 18.4501 8.54918 18.7641 8.8632C19.0781 9.17721 19.2545 9.60311 19.2545 10.0472C19.2545 10.4913 19.0781 10.9172 18.7641 11.2312C18.4501 11.5452 18.0242 11.7216 17.5801 11.7216H17.5048C17.2354 11.7227 16.9722 11.8025 16.7475 11.9513C16.5229 12.1 16.3467 12.3112 16.2406 12.5588V12.5588Z" stroke="#A3A3A3" stroke-width="1.67442" stroke-linecap="round" stroke-linejoin="round"/>
</g>
<defs>
<clipPath id="clip0">
<rect width="20.093" height="20.093" fill="white"/>
</clipPath>
</defs>
</svg>
