<svg width="21" height="21" viewBox="0 0 21 21" fill="none" xmlns="http://www.w3.org/2000/svg">
<g clip-path="url(#clip0)">
<path d="M7.53643 18.4186C7.99881 18.4186 8.37364 18.0437 8.37364 17.5813C8.37364 17.119 7.99881 16.7441 7.53643 16.7441C7.07405 16.7441 6.69922 17.119 6.69922 17.5813C6.69922 18.0437 7.07405 18.4186 7.53643 18.4186Z" stroke="#A3A3A3" stroke-width="1.67442" stroke-linecap="round" stroke-linejoin="round"/>
<path d="M16.7454 18.4186C17.2078 18.4186 17.5826 18.0437 17.5826 17.5813C17.5826 17.119 17.2078 16.7441 16.7454 16.7441C16.283 16.7441 15.9082 17.119 15.9082 17.5813C15.9082 18.0437 16.283 18.4186 16.7454 18.4186Z" stroke="#A3A3A3" stroke-width="1.67442" stroke-linecap="round" stroke-linejoin="round"/>
<path d="M0.837891 0.837891H4.18673L6.43045 12.0481C6.50701 12.4336 6.7167 12.7798 7.02281 13.0262C7.32893 13.2727 7.71196 13.4036 8.10487 13.396H16.2425C16.6354 13.4036 17.0185 13.2727 17.3246 13.0262C17.6307 12.7798 17.8404 12.4336 17.917 12.0481L19.2565 5.02394H5.02394" stroke="#A3A3A3" stroke-width="1.67442" stroke-linecap="round" stroke-linejoin="round"/>
</g>
<defs>
<clipPath id="clip0">
<rect width="20.093" height="20.093" fill="white"/>
</clipPath>
</defs>
</svg>
